# xmcd
#
# Track frame offsets: 
#        150
#        23140
#        45276
#        57667
#        75068
#        93493
#        115685
#        141141
#        153630
#        174830
#        186454
#        207826
#        222203
#        236826
#
# Disc length: 3225 seconds
#
# Revision: 1
# Processed by: cddbd v1.5.2PL0 Copyright (c) Steve Scherf et al.
# Submitted via: ExactAudioCopy v0.99pb4
#
DISCID=b60c970e
DTITLE=Nina Simone - The Nina Simone Collection [CD2]
DYEAR=2006
DGENRE=Jazz
TTITLE0=To Be Young, Gifted And Black
TTITLE1=The Assignment Song
TTITLE2=I'll Look Aroud
TTITLE3=Don't Let Me Be Misunderstood
TTITLE4=No Opportunity Necessary, No Experience Needed
TTITLE5=Gin House Blues
TTITLE6=After You've Gone
TTITLE7=Ain't No Use
TTITLE8=Blues
TTITLE9=Zungo
TTITLE10=Pirate Jenny
TTITLE11=Don't Smoke In Bed
TTITLE12=To Love Somebody
TTITLE13=You Took My Teeth
EXTD=YEAR: 2006
EXTT0=
EXTT1=
EXTT2=
EXTT3=
EXTT4=
EXTT5=
EXTT6=
EXTT7=
EXTT8=
EXTT9=
EXTT10=
EXTT11=
EXTT12=
EXTT13=
PLAYORDER=
